<svg width="300" height="300" xmlns="http://www.w3.org/2000/svg">

 <g>
  <title>Layer 1</title>
  <g stroke="null" id="svg_1" fill="#61DAFB">
   <path stroke="null" id="svg_2" d="m299.29999,149.98409c0,-22.16011 -24.68879,-43.16107 -62.54089,-56.18439c8.7351,-43.36562 4.85283,-77.8672 -12.2534,-88.91316c-3.94293,-2.59103 -8.55312,-3.81836 -13.58793,-3.81836l0,15.20524c2.79038,0 5.03481,0.61366 6.91529,1.77281c8.24982,5.31843 11.82878,25.56935 9.0384,51.616c-0.66726,6.40938 -1.75915,13.15969 -3.09368,20.04637c-11.88944,-3.27288 -24.87077,-5.79572 -38.51936,-7.43216c-8.18916,-12.61421 -16.68161,-24.06928 -25.23473,-34.09247c19.7753,-20.66004 38.33738,-31.97874 50.95475,-31.97874l0,-15.20524c-16.68161,0 -38.51936,13.36425 -60.59976,36.54713c-22.08039,-23.04651 -43.91814,-36.27439 -60.59976,-36.27439l0,15.20524c12.55671,0 31.17945,11.25052 50.95475,31.77418c-8.49246,10.02319 -16.98492,21.41007 -25.05275,34.02429c-13.70925,1.63644 -26.69058,4.15928 -38.58002,7.50034c-1.39519,-6.81849 -2.42642,-13.43243 -3.15434,-19.77363c-2.85104,-26.04665 0.66726,-46.29757 8.85642,-51.68419c1.81981,-1.22733 4.18557,-1.77281 6.97595,-1.77281l0,-15.20524c-5.09547,0 -9.70567,1.22733 -13.70925,3.81836c-17.04558,11.04596 -20.86718,45.47936 -12.07142,88.70861c-37.73078,13.09151 -62.29825,34.02429 -62.29825,56.11621c0,22.16011 24.68879,43.16107 62.54089,56.18439c-8.7351,43.36562 -4.85283,77.8672 12.2534,88.91316c3.94293,2.59103 8.55312,3.81836 13.64859,3.81836c16.68161,0 38.51936,-13.36425 60.59976,-36.54713c22.08039,23.04651 43.91814,36.27439 60.59976,36.27439c5.09547,0 9.70567,-1.22733 13.70925,-3.81836c17.04558,-11.04596 20.86718,-45.47936 12.07142,-88.70861c37.60946,-13.02332 62.17693,-34.02429 62.17693,-56.11621zm-78.97986,-45.47936c-2.24444,8.79586 -5.03481,17.86445 -8.18916,26.93305c-2.48708,-5.4548 -5.09547,-10.90959 -7.94651,-16.36439c-2.79038,-5.4548 -5.76274,-10.77322 -8.7351,-15.95528c8.61378,1.43188 16.92426,3.20469 24.87077,5.38661zm-27.78247,72.61696c-4.73151,9.20497 -9.58435,17.93264 -14.61916,26.04665c-9.0384,0.8864 -18.19812,1.3637 -27.41851,1.3637c-9.15972,0 -18.31945,-0.47729 -27.29719,-1.29551c-5.03481,-8.11401 -9.94831,-16.7735 -14.67982,-25.91028c-4.61019,-8.93223 -8.79576,-18.00082 -12.61737,-27.13761c3.76095,-9.13678 8.00717,-18.27356 12.55671,-27.20579c4.73151,-9.20497 9.58435,-17.93264 14.61916,-26.04665c9.0384,-0.8864 18.19812,-1.3637 27.41851,-1.3637c9.15972,0 18.31945,0.47729 27.29719,1.29551c5.03481,8.11401 9.94831,16.7735 14.67982,25.91028c4.61019,8.93223 8.79576,18.00082 12.61737,27.13761c-3.82161,9.13678 -8.00717,18.27356 -12.55671,27.20579zm19.59331,-8.86404c3.27566,9.13678 6.06604,18.27356 8.37114,27.13761c-7.94651,2.18192 -16.31765,4.02291 -24.99209,5.4548c2.97236,-5.25024 5.94472,-10.63685 8.7351,-16.15983c2.79038,-5.4548 5.39878,-10.97778 7.88585,-16.43257zm-61.50966,72.75333c-5.64142,-6.54575 -11.28284,-13.84154 -16.8636,-21.81918c5.45944,0.27274 11.0402,0.47729 16.68161,0.47729c5.70208,0 11.3435,-0.13637 16.8636,-0.47729c-5.45944,7.97764 -11.10086,15.27343 -16.68161,21.81918zm-45.13135,-40.16093c-8.61378,-1.43188 -16.92426,-3.20469 -24.87077,-5.38661c2.24444,-8.79586 5.03481,-17.86445 8.18916,-26.93305c2.48708,5.4548 5.09547,10.90959 7.94651,16.36439c2.85104,5.4548 5.76274,10.77322 8.7351,15.95528zm44.82805,-141.89286c5.64142,6.54575 11.28284,13.84154 16.8636,21.81918c-5.45944,-0.27274 -11.0402,-0.47729 -16.68161,-0.47729c-5.70208,0 -11.3435,0.13637 -16.8636,0.47729c5.45944,-7.97764 11.10086,-15.27343 16.68161,-21.81918zm-44.88871,40.16093c-2.97236,5.25024 -5.94472,10.63685 -8.7351,16.15983c-2.79038,5.4548 -5.39878,10.90959 -7.88585,16.36439c-3.27566,-9.13678 -6.06604,-18.27356 -8.37114,-27.13761c7.94651,-2.11373 16.31765,-3.95473 24.99209,-5.38661zm-54.89768,85.36755c-21.47379,-10.29593 -35.36502,-23.79654 -35.36502,-34.50158c0,-10.70504 13.89124,-24.27384 35.36502,-34.50158c5.2168,-2.52284 10.91887,-4.77295 16.80294,-6.88668c3.45764,13.36425 8.00717,27.27398 13.64859,41.52463c-5.58076,14.18247 -10.06963,28.02401 -13.46661,41.32007c-6.00538,-2.11373 -11.70746,-4.43202 -16.98492,-6.95486zm32.6353,97.43628c-8.24982,-5.31843 -11.82878,-25.56935 -9.0384,-51.616c0.66726,-6.40938 1.75915,-13.15969 3.09368,-20.04637c11.88944,3.27288 24.87077,5.79572 38.51936,7.43216c8.18916,12.61421 16.68161,24.06928 25.23473,34.09247c-19.7753,20.66004 -38.33738,31.97874 -50.95475,31.97874c-2.72972,-0.06818 -5.03481,-0.68185 -6.85463,-1.84099zm143.88651,-51.95693c2.85104,26.04665 -0.66726,46.29757 -8.85642,51.68419c-1.81981,1.22733 -4.18557,1.77281 -6.97595,1.77281c-12.55671,0 -31.17945,-11.25052 -50.95475,-31.77418c8.49246,-10.02319 16.98492,-21.41007 25.05275,-34.02429c13.70925,-1.63644 26.69058,-4.15928 38.58002,-7.50034c1.39519,6.88668 2.48708,13.50062 3.15434,19.84182zm23.35426,-45.47936c-5.2168,2.52284 -10.91887,4.77295 -16.80294,6.88668c-3.45764,-13.36425 -8.00717,-27.27398 -13.64859,-41.52463c5.58076,-14.18247 10.06963,-28.02401 13.46661,-41.32007c6.00538,2.11373 11.70746,4.43202 17.04558,6.95486c21.47379,10.29593 35.36502,23.79654 35.36502,34.50158c-0.06066,10.70504 -13.9519,24.27384 -35.42568,34.50158zm-160.68944,-183.21294z"/>
   <circle stroke="null" id="svg_3" r="26.25786" cy="149.98409" cx="150.43933"/>
   <path stroke="null" id="svg_4" d="m210.8571,1.06818z"/>
  </g>
 </g>
</svg>